# xmcd
#
# Track frame offsets:
#	150
#	19784
#	31959
#	54562
#	78603
#	91456
#	109402
#	124171
#	140402
#	156305
#	169913
#	185685
#
# Disc length: 2666 seconds
#
# Revision: 0
# Processed by: cddbd v1.5PL3 Copyright (c) Steve Scherf et al.
# Submitted via: dBpowerAMP V4.0
#
DISCID=a70a680c
DTITLE=Bobb Ray - Straight from the Heart
DYEAR=1900
DGENRE=Country
TTITLE0=One Man Against the World
TTITLE1=Kansas City Blues
TTITLE2=Hey Bartender
TTITLE3=Chicago
TTITLE4=Carolina Blue
TTITLE5=Deal Again
TTITLE6=To Hear the Blind Man Sing
TTITLE7=I Held You
TTITLE8=I Need Your Love
TTITLE9=Los Angeles
TTITLE10=I Can't Fall in Love Again
TTITLE11=The Loving End
EXTD=
EXTT0=
EXTT1=
EXTT2=
EXTT3=
EXTT4=
EXTT5=
EXTT6=
EXTT7=
EXTT8=
EXTT9=
EXTT10=
EXTT11=
PLAYORDER=
